<svg width="322" height="94" viewBox="0 0 322 94" fill="none" xmlns="http://www.w3.org/2000/svg">
<path d="M41.8591 72.5937C43.4776 71.0244 45.0551 69.4141 46.5916 67.7626C43.5947 57.5669 37.4992 48.5565 29.1506 41.9812C20.802 35.4059 10.6141 31.5916 0 31.0674V92.4295H18.1104C20.6985 90.5254 23.2619 88.5967 25.7822 86.6001C28.5757 84.3941 31.3157 82.1347 34.0024 79.8218C36.6952 77.4741 39.308 75.0585 41.8591 72.5937ZM48.6374 81.5472C46.7805 83.8683 44.8682 86.1277 42.9005 88.3255C41.668 89.712 40.4356 91.0676 39.1416 92.411H47.6145C48.2988 89.0442 48.6456 85.6175 48.6497 82.1819C48.6497 81.9539 48.6435 81.7506 48.6435 81.5657L48.6374 81.5472Z" fill="white"/>
<path d="M0 0.454102V28.2944C8.63713 28.6912 17.0498 31.1734 24.519 35.5287C26.0102 34.9125 27.5014 34.2963 29.005 33.6801C32.4064 32.3676 35.8387 31.1351 39.3141 30.0629C42.7895 28.9907 46.3143 28.0664 49.8759 27.3824C43.1146 29.8785 36.5272 32.8223 30.1573 36.1942L27.6924 37.5067C37.588 44.2187 44.9848 54.0162 48.7298 65.3717C48.8777 65.2115 49.0256 65.0513 49.1673 64.8849C51.5029 62.2624 53.6505 59.4785 55.5944 56.5538C56.5449 55.1134 57.3972 53.6105 58.1455 52.0554C58.8846 50.5555 59.4212 48.9641 59.7415 47.3229C60.075 45.8013 59.8996 44.2123 59.2423 42.8C58.427 41.4153 57.141 40.3699 55.619 39.8545C53.9715 39.2539 52.2434 38.9029 50.4922 38.8131C48.6954 38.7157 46.8941 38.7383 45.1003 38.8809C46.8718 38.4555 48.6751 38.1752 50.4922 38.0428C52.3501 37.8959 54.2196 38.0288 56.038 38.4372C57.0005 38.6677 57.9214 39.046 58.7678 39.5587C59.6618 40.0988 60.434 40.8185 61.0355 41.6723C61.6332 42.5493 62.052 43.5356 62.2679 44.5747C62.4677 45.5762 62.534 46.5998 62.4651 47.6187C62.3214 49.5628 61.9065 51.4772 61.2327 53.3064C60.5937 55.0885 59.8276 56.8224 58.9404 58.4948C57.1856 61.78 55.1876 64.9294 52.9632 67.9167C48.5476 73.8276 43.6837 79.3899 38.4145 84.5543C35.8141 87.1547 33.1274 89.6565 30.4037 92.0967C30.2743 92.2076 30.1449 92.3185 30.0217 92.4356H39.1601C40.4356 91.0923 41.6865 89.7366 42.919 88.3502C44.8826 86.1441 46.7949 83.8847 48.6559 81.5719C49.5494 80.4504 50.4305 79.3165 51.2871 78.1642C51.3857 79.4952 51.4411 80.8324 51.4411 82.1881C51.4394 85.6336 51.1092 89.0712 50.4552 92.4541H91.9877V0.454102H0ZM12.7124 27.6597C12.7124 26.8916 12.4073 26.155 11.8641 25.6118C11.321 25.0687 10.5843 24.7635 9.81621 24.7635C10.1968 24.7644 10.5737 24.69 10.9255 24.5447C11.2772 24.3995 11.5968 24.1862 11.8659 23.9171C12.135 23.648 12.3483 23.3284 12.4936 22.9766C12.6388 22.6249 12.7132 22.2479 12.7124 21.8674C12.7124 22.6355 13.0175 23.3721 13.5607 23.9153C14.1038 24.4584 14.8405 24.7635 15.6086 24.7635C14.841 24.7652 14.1052 25.0708 13.5625 25.6136C13.0197 26.1564 12.714 26.8921 12.7124 27.6597ZM22.2821 10.7879C22.2821 10.3728 22.1172 9.97471 21.8237 9.68118C21.5302 9.38766 21.1321 9.22276 20.7169 9.22276C21.1321 9.22276 21.5302 9.05785 21.8237 8.76433C22.1172 8.4708 22.2821 8.07269 22.2821 7.65759C22.2821 8.07269 22.447 8.4708 22.7405 8.76433C23.0341 9.05785 23.4322 9.22276 23.8473 9.22276C23.4322 9.22276 23.0341 9.38766 22.7405 9.68118C22.447 9.97471 22.2821 10.3728 22.2821 10.7879ZM42.8635 19.1745C42.8635 18.2212 42.4852 17.3068 41.8116 16.6321C41.1381 15.9574 40.2244 15.5775 39.271 15.5759C39.7433 15.5759 40.2109 15.4827 40.6472 15.3018C41.0835 15.1209 41.4798 14.8557 41.8135 14.5215C42.1471 14.1872 42.4116 13.7905 42.5918 13.3539C42.772 12.9173 42.8643 12.4495 42.8635 11.9772C42.8635 12.9316 43.2426 13.847 43.9175 14.5219C44.5924 15.1967 45.5077 15.5759 46.4622 15.5759C45.5082 15.5775 44.5938 15.9572 43.9193 16.6317C43.2448 17.3062 42.8651 18.2206 42.8635 19.1745ZM61.3498 83.6238C61.3498 83.1596 61.2582 82.7 61.0804 82.2712C60.9026 81.8424 60.6419 81.4529 60.3134 81.1249C59.9849 80.797 59.5949 80.537 59.1658 80.3599C58.7367 80.1829 58.2769 80.0921 57.8127 80.0929C58.7508 80.0929 59.6505 79.7203 60.3138 79.057C60.9771 78.3937 61.3498 77.494 61.3498 76.5559C61.349 77.0201 61.4397 77.4799 61.6168 77.909C61.7938 78.3381 62.0538 78.7281 62.3817 79.0566C62.7097 79.3851 63.0992 79.6458 63.528 79.8236C63.9568 80.0014 64.4164 80.0929 64.8806 80.0929C64.4167 80.0921 63.9572 80.1829 63.5285 80.3601C63.0997 80.5372 62.7102 80.7973 62.3821 81.1253C62.0541 81.4533 61.794 81.8429 61.6169 82.2717C61.4397 82.7004 61.3489 83.1599 61.3498 83.6238ZM70.9195 54.2368C70.9195 54.0313 70.879 53.8277 70.8003 53.6379C70.7217 53.448 70.6064 53.2754 70.4611 53.1301C70.3157 52.9847 70.1432 52.8694 69.9533 52.7908C69.7634 52.7121 69.5599 52.6716 69.3543 52.6716C69.7694 52.6716 70.1675 52.5067 70.4611 52.2132C70.7546 51.9197 70.9195 51.5216 70.9195 51.1065C70.9187 51.3123 70.9586 51.5161 71.037 51.7064C71.1153 51.8967 71.2306 52.0695 71.3761 52.215C71.5216 52.3605 71.6945 52.4758 71.8847 52.5542C72.075 52.6325 72.2789 52.6725 72.4846 52.6716C72.0695 52.6716 71.6714 52.8365 71.3779 53.1301C71.0844 53.4236 70.9195 53.8217 70.9195 54.2368ZM66.4705 29.7179L72.1704 22.9827L54.097 25.6509L72.1211 19.6737L66.2733 15.7053L75.6643 17.7942L81.4135 14.7563L77.9258 19.9448L82.763 24.5787L75.7567 23.1491L66.4705 29.7179ZM84.9567 72.3534C84.9567 71.668 84.6849 71.0107 84.2009 70.5255C83.7169 70.0403 83.0601 69.7669 82.3748 69.7653C83.0591 69.7637 83.7149 69.4911 84.1987 69.0073C84.6825 68.5234 84.9551 67.8676 84.9567 67.1834C84.9584 67.8687 85.2317 68.5254 85.7169 69.0094C86.2021 69.4935 86.8595 69.7653 87.5448 69.7653C87.2008 69.7587 86.8589 69.8208 86.5392 69.948C86.2195 70.0751 85.9284 70.2647 85.6828 70.5057C85.4372 70.7467 85.2422 71.0342 85.109 71.3514C84.9759 71.6687 84.9074 72.0093 84.9074 72.3534H84.9567Z" fill="white"/>
<path d="M307.715 93.0727C305.797 93.0727 304.003 92.7221 302.333 92.0211C300.663 91.2994 299.199 90.32 297.941 89.0829C296.684 87.8458 295.694 86.4025 294.972 84.7529C294.25 83.0828 293.89 81.2993 293.89 79.4023C293.89 77.1343 294.22 75.0415 294.879 73.1239C295.539 71.1857 296.477 69.5156 297.694 68.1135C298.91 66.7114 300.364 65.6186 302.055 64.8351C303.766 64.031 305.673 63.6289 307.776 63.6289C309.632 63.6289 311.323 63.9588 312.849 64.6186C314.395 65.2578 315.715 66.1341 316.808 67.2475C317.921 68.3403 318.787 69.6084 319.406 71.0517C320.024 72.4744 320.333 73.9693 320.333 75.5363H299.271C299.271 77.4332 299.508 79.1962 299.983 80.8251C300.477 82.4333 301.168 83.8251 302.055 85.0004C302.941 86.1756 303.993 87.1035 305.209 87.7839C306.426 88.4437 307.766 88.7736 309.23 88.7736C310.447 88.7736 311.612 88.5777 312.725 88.186C313.859 87.7942 314.88 87.2788 315.787 86.6396C316.715 85.9798 317.498 85.2375 318.137 84.4127C318.777 83.588 319.23 82.7323 319.498 81.8457L321.076 82.557C320.663 84.0004 320.014 85.3612 319.127 86.6396C318.241 87.9179 317.189 89.0314 315.972 89.9798C314.777 90.9283 313.467 91.6809 312.045 92.2376C310.622 92.7943 309.179 93.0727 307.715 93.0727ZM313.313 73.2785C313.313 72.2064 313.117 71.2167 312.725 70.3094C312.354 69.3816 311.838 68.5774 311.179 67.897C310.519 67.2166 309.746 66.6908 308.859 66.3197C307.972 65.9279 307.024 65.732 306.014 65.732C305.168 65.732 304.354 65.9279 303.57 66.3197C302.807 66.6908 302.127 67.2166 301.529 67.897C300.931 68.5774 300.426 69.3816 300.013 70.3094C299.622 71.2167 299.385 72.2064 299.302 73.2785H313.313Z" fill="white"/>
<path d="M278.735 91.1242C279.498 91.1242 280.199 91.0108 280.838 90.784C281.498 90.5365 282.054 90.2169 282.508 89.8252C282.982 89.4334 283.353 88.9901 283.621 88.4953C283.889 88.0004 284.023 87.4849 284.023 86.9489C284.023 86.0829 283.807 85.3303 283.374 84.6911C282.941 84.0519 282.364 83.4746 281.642 82.9591C280.941 82.4436 280.137 81.9797 279.23 81.5673C278.322 81.1343 277.394 80.7013 276.446 80.2683C275.518 79.8147 274.601 79.3302 273.693 78.8147C272.786 78.2992 271.972 77.7013 271.25 77.0209C270.549 76.3404 269.982 75.5569 269.549 74.6703C269.116 73.7837 268.9 72.7321 268.9 71.5156C268.9 70.3816 269.137 69.33 269.611 68.3609C270.106 67.3919 270.776 66.5568 271.621 65.8557C272.487 65.1547 273.508 64.6083 274.683 64.2165C275.858 63.8248 277.147 63.6289 278.549 63.6289C279.477 63.6289 280.353 63.7011 281.178 63.8454C282.003 63.9691 282.797 64.2165 283.56 64.5877C284.343 64.9588 285.127 65.4949 285.91 66.196C286.694 66.8764 287.508 67.7733 288.353 68.8867L286.312 70.7115C285.24 68.9589 284.034 67.6599 282.694 66.8145C281.374 65.9485 279.962 65.5155 278.456 65.5155C277.652 65.5155 276.92 65.6186 276.26 65.8248C275.601 66.0104 275.034 66.2784 274.559 66.629C274.085 66.9589 273.714 67.3506 273.446 67.8042C273.199 68.2578 273.075 68.7424 273.075 69.2579C273.075 70.1032 273.312 70.8455 273.786 71.4847C274.26 72.1033 274.879 72.6703 275.642 73.1858C276.425 73.7012 277.302 74.1755 278.271 74.6085C279.261 75.0208 280.271 75.4538 281.302 75.9074C282.333 76.3404 283.333 76.8147 284.302 77.3301C285.292 77.8456 286.168 78.4436 286.931 79.124C287.714 79.7838 288.343 80.557 288.817 81.4436C289.292 82.3302 289.529 83.3612 289.529 84.5364C289.529 85.7323 289.302 86.8561 288.848 87.9076C288.415 88.9386 287.745 89.8355 286.838 90.5984C285.951 91.3613 284.828 91.9695 283.467 92.4232C282.127 92.8562 280.549 93.0727 278.735 93.0727C277.91 93.0727 277.065 93.0005 276.199 92.8562C275.333 92.7325 274.456 92.485 273.57 92.1139C272.683 91.7427 271.796 91.217 270.91 90.5365C270.023 89.8355 269.157 88.9283 268.312 87.8148L270.601 85.7427C271.281 86.7117 271.931 87.5365 272.549 88.2169C273.188 88.8973 273.827 89.4541 274.467 89.887C275.126 90.32 275.797 90.6396 276.477 90.8458C277.178 91.0314 277.931 91.1242 278.735 91.1242Z" fill="white"/>
<path d="M248.054 64.2165H253.621V69.5671C254.178 68.763 254.765 68.0104 255.384 67.3094C256.023 66.5877 256.683 65.9588 257.363 65.4227C258.044 64.866 258.745 64.433 259.466 64.1238C260.209 63.7939 260.951 63.6289 261.693 63.6289C262.312 63.6289 262.879 63.7217 263.394 63.9073C263.93 64.0928 264.394 64.3403 264.786 64.6495C265.178 64.9588 265.487 65.3197 265.714 65.732C265.941 66.1444 266.054 66.5774 266.054 67.031C266.054 67.9589 265.765 68.6496 265.188 69.1032C264.631 69.5568 263.848 69.7836 262.838 69.7836C262.219 69.7836 261.714 69.7218 261.322 69.5981C260.951 69.4537 260.611 69.3094 260.301 69.1651C259.992 69.0001 259.683 68.8558 259.374 68.7321C259.064 68.5877 258.662 68.5156 258.167 68.5156C257.425 68.5156 256.673 68.928 255.91 69.7527C255.167 70.5775 254.404 71.629 253.621 72.9074V92.4541H248.054V64.2165Z" fill="white"/>
<path d="M229.404 93.0727C227.487 93.0727 225.693 92.7221 224.023 92.0211C222.352 91.2994 220.888 90.32 219.631 89.0829C218.373 87.8458 217.383 86.4025 216.662 84.7529C215.94 83.0828 215.579 81.2993 215.579 79.4023C215.579 77.1343 215.909 75.0415 216.569 73.1239C217.229 71.1857 218.167 69.5156 219.383 68.1135C220.6 66.7114 222.053 65.6186 223.744 64.8351C225.456 64.031 227.363 63.6289 229.466 63.6289C231.322 63.6289 233.012 63.9588 234.538 64.6186C236.085 65.2578 237.404 66.1341 238.497 67.2475C239.61 68.3403 240.476 69.6084 241.095 71.0517C241.714 72.4744 242.023 73.9693 242.023 75.5363H220.961C220.961 77.4332 221.198 79.1962 221.672 80.8251C222.167 82.4333 222.858 83.8251 223.744 85.0004C224.631 86.1756 225.682 87.1035 226.899 87.7839C228.115 88.4437 229.456 88.7736 230.92 88.7736C232.136 88.7736 233.301 88.5777 234.414 88.186C235.548 87.7942 236.569 87.2788 237.476 86.6396C238.404 85.9798 239.188 85.2375 239.827 84.4127C240.466 83.588 240.92 82.7323 241.188 81.8457L242.765 82.557C242.353 84.0004 241.703 85.3612 240.817 86.6396C239.93 87.9179 238.878 89.0314 237.662 89.9798C236.466 90.9283 235.157 91.6809 233.734 92.2376C232.311 92.7943 230.868 93.0727 229.404 93.0727ZM235.002 73.2785C235.002 72.2064 234.806 71.2167 234.414 70.3094C234.043 69.3816 233.528 68.5774 232.868 67.897C232.208 67.2166 231.435 66.6908 230.548 66.3197C229.662 65.9279 228.713 65.732 227.703 65.732C226.858 65.732 226.043 65.9279 225.26 66.3197C224.497 66.6908 223.816 67.2166 223.218 67.897C222.62 68.5774 222.115 69.3816 221.703 70.3094C221.311 71.2167 221.074 72.2064 220.992 73.2785H235.002Z" fill="white"/>
<path d="M191.3 64.2166L201.29 85.588L210.847 64.2166H213.445L200.703 92.7634H198.723L185.424 64.2166H191.3Z" fill="white"/>
<path d="M178.929 49.7732C179.362 49.7732 179.774 49.8454 180.166 49.9897C180.579 50.134 180.929 50.3402 181.218 50.6083C181.506 50.8557 181.733 51.1547 181.898 51.5052C182.084 51.8351 182.177 52.1959 182.177 52.5877C182.177 52.9588 182.084 53.3196 181.898 53.6702C181.733 54.0001 181.506 54.299 181.218 54.5671C180.929 54.8145 180.579 55.0207 180.166 55.1856C179.774 55.33 179.362 55.4021 178.929 55.4021C178.496 55.4021 178.084 55.33 177.692 55.1856C177.3 55.0207 176.96 54.8145 176.671 54.5671C176.383 54.299 176.146 54.0001 175.96 53.6702C175.795 53.3196 175.713 52.9588 175.713 52.5877C175.713 52.1959 175.795 51.8351 175.96 51.5052C176.146 51.1547 176.383 50.8557 176.671 50.6083C176.96 50.3402 177.3 50.134 177.692 49.9897C178.084 49.8454 178.496 49.7732 178.929 49.7732ZM176.207 65.2374L180.135 63.6291H181.774V92.4543H176.207V65.2374Z" fill="white"/>
<path d="M145.805 64.2165H151.403V69.3816C153.114 67.4434 154.887 66.0001 156.723 65.0516C158.558 64.1031 160.434 63.6289 162.351 63.6289C163.341 63.6289 164.259 63.8557 165.104 64.3093C165.97 64.7629 166.723 65.3815 167.362 66.165C168.022 66.9279 168.537 67.8352 168.908 68.8867C169.279 69.9177 169.465 71.0208 169.465 72.1961V92.4541H163.836V73.1239C163.836 71.2476 163.413 69.8352 162.568 68.8867C161.743 67.9383 160.671 67.464 159.351 67.464C158.753 67.464 158.125 67.5671 157.465 67.7733C156.805 67.9589 156.125 68.2269 155.424 68.5774C154.743 68.928 154.063 69.3506 153.382 69.8455C152.702 70.3404 152.042 70.8971 151.403 71.5156V92.4541H145.805V64.2165Z" fill="white"/>
<path d="M106.928 55.835H113.083V79.5879C113.083 81.1549 113.351 82.6292 113.887 84.0107C114.423 85.3921 115.186 86.5983 116.176 87.6293C117.186 88.6602 118.392 89.4747 119.794 90.0726C121.196 90.6706 122.763 90.9695 124.495 90.9695C126.248 90.9695 127.825 90.6706 129.227 90.0726C130.629 89.4747 131.815 88.6602 132.784 87.6293C133.774 86.5983 134.526 85.3921 135.042 84.0107C135.578 82.6292 135.846 81.1549 135.846 79.5879V55.835H138.568V79.5879C138.568 81.4642 138.258 83.2374 137.64 84.9076C137.042 86.5571 136.093 88.0107 134.794 89.2685C133.516 90.5056 131.867 91.4953 129.846 92.2376C127.825 92.9592 125.392 93.3201 122.547 93.3201C120.011 93.3201 117.763 92.9592 115.804 92.2376C113.866 91.4953 112.237 90.4953 110.918 89.2375C109.619 87.9798 108.629 86.5158 107.949 84.8457C107.268 83.155 106.928 81.3611 106.928 79.4642V55.835Z" fill="white"/>
<path d="M188.517 0.834961H201.167C203.373 0.834961 205.301 1.07208 206.95 1.54631C208.62 2.02055 210.012 2.68035 211.125 3.52572C212.239 4.3711 213.074 5.38142 213.631 6.5567C214.187 7.73197 214.466 9.01034 214.466 10.3918C214.466 11.5258 214.249 12.5877 213.816 13.5774C213.383 14.5671 212.765 15.4641 211.961 16.2682C211.177 17.0517 210.229 17.7424 209.115 18.3404C208.022 18.9177 206.816 19.361 205.496 19.6703L218.827 37.4541H211.682L198.971 20.227H194.672V37.4541H188.517V0.834961ZM194.672 18.4022H198.197C199.579 18.4022 200.857 18.227 202.033 17.8765C203.208 17.5053 204.218 16.9795 205.063 16.2991C205.929 15.6187 206.6 14.7939 207.074 13.8249C207.569 12.8558 207.816 11.7733 207.816 10.5774C207.816 9.48458 207.62 8.48456 207.228 7.57733C206.857 6.6701 206.332 5.88659 205.651 5.22678C204.971 4.56698 204.156 4.05151 203.208 3.68037C202.259 3.30923 201.218 3.12366 200.084 3.12366H194.672V18.4022Z" fill="white"/>
<path d="M173.176 0.834961H179.331V37.4541H173.176V0.834961Z" fill="white"/>
<path d="M151.186 0L168.413 37.4542H162.166L156.568 25.2375H140.887L135.104 37.4542H132.011L149.671 0H151.186ZM141.97 22.856H155.455L148.805 8.38157L141.97 22.856Z" fill="white"/>
<path d="M131.609 0.834961V3.18551H113.763V16.2991H126.66V18.6497H113.763V37.4541H107.608V0.834961H131.609Z" fill="white"/>
</svg>
