<svg width="518" height="221" viewBox="0 0 518 221" fill="none" xmlns="http://www.w3.org/2000/svg">
<path d="M252.229 104.23C254.558 101.954 256.828 99.6183 259.039 97.223C254.727 82.4351 245.956 69.3663 233.944 59.8294C221.931 50.2926 207.272 44.7603 192 44V133H218.058C221.782 130.238 225.471 127.441 229.097 124.545C233.116 121.345 237.059 118.068 240.925 114.714C244.799 111.309 248.559 107.805 252.229 104.23ZM261.982 117.216C259.311 120.583 256.559 123.86 253.728 127.048C251.954 129.059 250.181 131.025 248.319 132.973H260.51C261.495 128.09 261.994 123.12 262 118.137C262 117.806 261.991 117.511 261.991 117.243L261.982 117.216Z" fill="#2A6BB4"/>
<path d="M192 0V40.2474C204.488 40.8211 216.651 44.4094 227.451 50.7057C229.607 49.8149 231.763 48.924 233.937 48.0332C238.855 46.1358 243.817 44.3541 248.842 42.8041C253.867 41.2541 258.963 39.9178 264.113 38.929C254.337 42.5374 244.813 46.7931 235.603 51.6678L232.039 53.5652C246.346 63.2684 257.041 77.4321 262.456 93.8483C262.67 93.6167 262.883 93.385 263.088 93.1445C266.465 89.3533 269.57 85.3287 272.381 81.1006C273.755 79.0183 274.988 76.8457 276.069 74.5976C277.138 72.4292 277.914 70.1286 278.377 67.756C278.859 65.5563 278.606 63.2591 277.655 61.2174C276.476 59.2157 274.617 57.7044 272.417 56.9593C270.034 56.091 267.536 55.5835 265.004 55.4538C262.406 55.3129 259.802 55.3457 257.208 55.5518C259.769 54.9367 262.377 54.5316 265.004 54.3402C267.69 54.1277 270.393 54.3199 273.022 54.9104C274.414 55.2435 275.745 55.7904 276.969 56.5317C278.262 57.3124 279.378 58.3529 280.248 59.5872C281.112 60.855 281.718 62.2808 282.03 63.783C282.319 65.2309 282.415 66.7106 282.315 68.1837C282.107 70.9941 281.507 73.7616 280.533 76.406C279.609 78.9823 278.502 81.489 277.219 83.9067C274.682 88.6559 271.793 93.2089 268.577 97.5274C262.192 106.073 255.16 114.114 247.541 121.58C243.782 125.339 239.897 128.956 235.959 132.483C235.772 132.644 235.585 132.804 235.407 132.973H248.619C250.464 131.031 252.272 129.071 254.054 127.067C256.893 123.878 259.658 120.612 262.349 117.268C263.641 115.647 264.915 114.008 266.153 112.342C266.296 114.266 266.376 116.199 266.376 118.159C266.373 123.14 265.896 128.109 264.95 133H325V0H192ZM210.38 39.3299C210.38 38.2194 209.939 37.1545 209.154 36.3693C208.368 35.5841 207.303 35.143 206.193 35.143C206.743 35.1442 207.288 35.0367 207.797 34.8267C208.305 34.6167 208.767 34.3083 209.156 33.9193C209.545 33.5303 209.854 33.0683 210.064 32.5598C210.274 32.0513 210.381 31.5063 210.38 30.9561C210.38 32.0666 210.821 33.1315 211.607 33.9167C212.392 34.7019 213.457 35.143 214.568 35.143C213.458 35.1454 212.394 35.5872 211.609 36.3719C210.824 37.1566 210.383 38.2202 210.38 39.3299ZM224.217 14.9391C224.217 14.339 223.978 13.7635 223.554 13.3392C223.129 12.9148 222.554 12.6764 221.954 12.6764C222.554 12.6764 223.129 12.438 223.554 12.0137C223.978 11.5894 224.217 11.0138 224.217 10.4137C224.217 11.0138 224.455 11.5894 224.879 12.0137C225.304 12.438 225.879 12.6764 226.48 12.6764C225.879 12.6764 225.304 12.9148 224.879 13.3392C224.455 13.7635 224.217 14.339 224.217 14.9391ZM253.974 27.0632C253.974 25.685 253.427 24.3631 252.453 23.3877C251.479 22.4123 250.158 21.8632 248.78 21.8608C249.463 21.8608 250.139 21.7262 250.77 21.4646C251.4 21.2031 251.973 20.8197 252.456 20.3365C252.938 19.8533 253.321 19.2798 253.581 18.6486C253.842 18.0175 253.975 17.3412 253.974 16.6584C253.974 18.0382 254.522 19.3614 255.498 20.3371C256.474 21.3127 257.797 21.8608 259.177 21.8608C257.798 21.8632 256.476 22.412 255.501 23.3872C254.525 24.3623 253.976 25.6842 253.974 27.0632ZM280.702 120.234C280.702 119.563 280.57 118.899 280.313 118.279C280.056 117.659 279.679 117.096 279.204 116.622C278.729 116.148 278.165 115.772 277.545 115.516C276.924 115.26 276.259 115.129 275.588 115.13C276.945 115.13 278.245 114.591 279.204 113.632C280.164 112.673 280.702 111.373 280.702 110.017C280.701 110.688 280.832 111.353 281.088 111.973C281.344 112.593 281.72 113.157 282.194 113.632C282.669 114.107 283.232 114.484 283.852 114.741C284.472 114.998 285.136 115.13 285.807 115.13C285.137 115.129 284.472 115.26 283.852 115.516C283.232 115.772 282.669 116.148 282.195 116.622C281.721 117.097 281.345 117.66 281.089 118.28C280.832 118.9 280.701 119.564 280.702 120.234ZM294.539 77.7511C294.539 77.454 294.48 77.1597 294.366 76.8852C294.253 76.6107 294.086 76.3612 293.876 76.1511C293.666 75.941 293.416 75.7744 293.142 75.6606C292.867 75.5469 292.573 75.4884 292.276 75.4884C292.876 75.4884 293.451 75.25 293.876 74.8257C294.3 74.4013 294.539 73.8258 294.539 73.2257C294.537 73.5232 294.595 73.8179 294.709 74.093C294.822 74.3681 294.988 74.618 295.199 74.8283C295.409 75.0386 295.659 75.2053 295.934 75.3186C296.209 75.4319 296.504 75.4896 296.802 75.4884C296.201 75.4884 295.626 75.7268 295.201 76.1511C294.777 76.5755 294.539 77.151 294.539 77.7511ZM288.106 42.3052L296.347 32.5685L270.216 36.4258L296.276 27.7848L287.821 22.0479L301.399 25.0678L309.711 20.676L304.669 28.1768L311.663 34.8758L301.533 32.809L288.106 42.3052ZM314.834 103.941C314.834 102.951 314.441 102 313.742 101.299C313.042 100.597 312.092 100.202 311.101 100.2C312.091 100.198 313.039 99.8035 313.738 99.104C314.438 98.4046 314.832 97.4565 314.834 96.4673C314.837 97.4581 315.232 98.4074 315.933 99.1072C316.635 99.8069 317.585 100.2 318.576 100.2C318.079 100.19 317.585 100.28 317.122 100.464C316.66 100.648 316.239 100.922 315.884 101.27C315.529 101.619 315.247 102.034 315.055 102.493C314.862 102.952 314.763 103.444 314.763 103.941H314.834Z" fill="#092E47"/>
<path d="M111.75 162.381V164.731H93.9047V177.845H106.802V180.196H93.9047V199H87.7499V162.381H111.75ZM131.328 161.546L148.555 199H142.307L136.709 186.783H121.029L115.245 199H112.152L129.812 161.546H131.328ZM122.111 184.402H135.596L128.946 169.927L122.111 184.402ZM153.318 162.381H159.473V199H153.318V162.381ZM168.658 162.381H181.308C183.514 162.381 185.442 162.618 187.092 163.092C188.762 163.566 190.154 164.226 191.267 165.072C192.38 165.917 193.215 166.927 193.772 168.103C194.329 169.278 194.607 170.556 194.607 171.938C194.607 173.072 194.391 174.134 193.958 175.123C193.525 176.113 192.906 177.01 192.102 177.814C191.319 178.598 190.37 179.288 189.257 179.886C188.164 180.464 186.958 180.907 185.638 181.216L198.968 199H191.824L179.112 181.773H174.813V199H168.658V162.381ZM174.813 179.948H178.339C179.72 179.948 180.999 179.773 182.174 179.422C183.349 179.051 184.36 178.525 185.205 177.845C186.071 177.165 186.741 176.34 187.215 175.371C187.71 174.402 187.958 173.319 187.958 172.123C187.958 171.03 187.762 170.03 187.37 169.123C186.999 168.216 186.473 167.433 185.793 166.773C185.112 166.113 184.298 165.597 183.349 165.226C182.401 164.855 181.36 164.67 180.226 164.67H174.813V179.948ZM218.7 162.381H224.855V186.134C224.855 187.701 225.123 189.175 225.659 190.557C226.195 191.938 226.958 193.144 227.948 194.175C228.958 195.206 230.164 196.021 231.567 196.619C232.969 197.216 234.536 197.515 236.268 197.515C238.02 197.515 239.598 197.216 241 196.619C242.402 196.021 243.587 195.206 244.556 194.175C245.546 193.144 246.299 191.938 246.814 190.557C247.35 189.175 247.618 187.701 247.618 186.134V162.381H250.34V186.134C250.34 188.01 250.031 189.783 249.412 191.453C248.814 193.103 247.866 194.557 246.567 195.814C245.288 197.052 243.639 198.041 241.618 198.784C239.598 199.505 237.165 199.866 234.319 199.866C231.783 199.866 229.536 199.505 227.577 198.784C225.639 198.041 224.01 197.041 222.69 195.783C221.391 194.526 220.401 193.062 219.721 191.392C219.041 189.701 218.7 187.907 218.7 186.01V162.381ZM257.577 170.762H263.175V175.927C264.887 173.989 266.66 172.546 268.495 171.598C270.33 170.649 272.206 170.175 274.124 170.175C275.114 170.175 276.031 170.402 276.877 170.855C277.743 171.309 278.495 171.927 279.134 172.711C279.794 173.474 280.31 174.381 280.681 175.433C281.052 176.464 281.237 177.567 281.237 178.742V199H275.608V179.67C275.608 177.793 275.186 176.381 274.34 175.433C273.516 174.484 272.443 174.01 271.124 174.01C270.526 174.01 269.897 174.113 269.237 174.319C268.577 174.505 267.897 174.773 267.196 175.123C266.516 175.474 265.835 175.897 265.155 176.391C264.474 176.886 263.814 177.443 263.175 178.062V199H257.577V170.762ZM290.702 156.319C291.135 156.319 291.547 156.391 291.939 156.535C292.351 156.68 292.702 156.886 292.99 157.154C293.279 157.401 293.506 157.7 293.671 158.051C293.856 158.381 293.949 158.742 293.949 159.133C293.949 159.505 293.856 159.865 293.671 160.216C293.506 160.546 293.279 160.845 292.99 161.113C292.702 161.36 292.351 161.566 291.939 161.731C291.547 161.876 291.135 161.948 290.702 161.948C290.269 161.948 289.856 161.876 289.464 161.731C289.073 161.566 288.732 161.36 288.444 161.113C288.155 160.845 287.918 160.546 287.732 160.216C287.567 159.865 287.485 159.505 287.485 159.133C287.485 158.742 287.567 158.381 287.732 158.051C287.918 157.7 288.155 157.401 288.444 157.154C288.732 156.886 289.073 156.68 289.464 156.535C289.856 156.391 290.269 156.319 290.702 156.319ZM287.98 171.783L291.908 170.175H293.547V199H287.98V171.783ZM303.073 170.762L313.063 192.134L322.62 170.762H325.218L312.475 199.309H310.496L297.196 170.762H303.073ZM341.177 199.619C339.259 199.619 337.465 199.268 335.795 198.567C334.125 197.845 332.661 196.866 331.403 195.629C330.145 194.392 329.156 192.948 328.434 191.299C327.712 189.629 327.352 187.845 327.352 185.948C327.352 183.68 327.681 181.587 328.341 179.67C329.001 177.732 329.939 176.062 331.156 174.659C332.372 173.257 333.826 172.165 335.517 171.381C337.228 170.577 339.135 170.175 341.238 170.175C343.094 170.175 344.785 170.505 346.311 171.165C347.857 171.804 349.177 172.68 350.269 173.793C351.383 174.886 352.249 176.154 352.867 177.598C353.486 179.02 353.795 180.515 353.795 182.082H332.733C332.733 183.979 332.97 185.742 333.444 187.371C333.939 188.979 334.63 190.371 335.517 191.546C336.403 192.722 337.455 193.649 338.671 194.33C339.888 194.99 341.228 195.32 342.692 195.32C343.909 195.32 345.073 195.124 346.187 194.732C347.321 194.34 348.342 193.825 349.249 193.185C350.177 192.526 350.96 191.783 351.599 190.959C352.239 190.134 352.692 189.278 352.96 188.392L354.538 189.103C354.125 190.546 353.476 191.907 352.589 193.185C351.702 194.464 350.651 195.577 349.434 196.526C348.238 197.474 346.929 198.227 345.506 198.784C344.084 199.34 342.64 199.619 341.177 199.619ZM346.775 179.824C346.775 178.752 346.579 177.763 346.187 176.855C345.816 175.927 345.3 175.123 344.641 174.443C343.981 173.762 343.207 173.237 342.321 172.866C341.434 172.474 340.486 172.278 339.475 172.278C338.63 172.278 337.816 172.474 337.032 172.866C336.269 173.237 335.589 173.762 334.991 174.443C334.393 175.123 333.888 175.927 333.475 176.855C333.084 177.763 332.847 178.752 332.764 179.824H346.775ZM359.826 170.762H365.393V176.113C365.95 175.309 366.538 174.556 367.156 173.855C367.796 173.134 368.455 172.505 369.136 171.969C369.816 171.412 370.517 170.979 371.239 170.67C371.981 170.34 372.723 170.175 373.466 170.175C374.084 170.175 374.651 170.268 375.167 170.453C375.703 170.639 376.167 170.886 376.559 171.195C376.95 171.505 377.26 171.866 377.486 172.278C377.713 172.69 377.827 173.123 377.827 173.577C377.827 174.505 377.538 175.196 376.961 175.649C376.404 176.103 375.62 176.33 374.61 176.33C373.991 176.33 373.486 176.268 373.095 176.144C372.723 176 372.383 175.855 372.074 175.711C371.765 175.546 371.455 175.402 371.146 175.278C370.837 175.134 370.435 175.061 369.94 175.061C369.198 175.061 368.445 175.474 367.682 176.299C366.94 177.123 366.177 178.175 365.393 179.453V199H359.826V170.762ZM390.507 197.67C391.27 197.67 391.971 197.557 392.61 197.33C393.27 197.082 393.827 196.763 394.28 196.371C394.755 195.979 395.126 195.536 395.394 195.041C395.662 194.546 395.796 194.031 395.796 193.495C395.796 192.629 395.579 191.876 395.146 191.237C394.713 190.598 394.136 190.02 393.414 189.505C392.713 188.99 391.909 188.526 391.002 188.113C390.095 187.68 389.167 187.247 388.218 186.814C387.291 186.361 386.373 185.876 385.466 185.361C384.559 184.845 383.744 184.247 383.023 183.567C382.321 182.886 381.754 182.103 381.321 181.216C380.888 180.33 380.672 179.278 380.672 178.062C380.672 176.927 380.909 175.876 381.383 174.907C381.878 173.938 382.548 173.103 383.394 172.402C384.26 171.701 385.28 171.154 386.456 170.762C387.631 170.371 388.92 170.175 390.322 170.175C391.249 170.175 392.126 170.247 392.95 170.391C393.775 170.515 394.569 170.762 395.332 171.134C396.115 171.505 396.899 172.041 397.683 172.742C398.466 173.422 399.28 174.319 400.126 175.433L398.085 177.257C397.012 175.505 395.806 174.206 394.466 173.36C393.146 172.494 391.734 172.061 390.229 172.061C389.425 172.061 388.693 172.165 388.033 172.371C387.373 172.556 386.806 172.824 386.332 173.175C385.858 173.505 385.486 173.897 385.218 174.35C384.971 174.804 384.847 175.288 384.847 175.804C384.847 176.649 385.084 177.391 385.559 178.031C386.033 178.649 386.651 179.216 387.414 179.732C388.198 180.247 389.074 180.721 390.043 181.154C391.033 181.567 392.043 182 393.074 182.453C394.105 182.886 395.105 183.361 396.074 183.876C397.064 184.392 397.94 184.989 398.703 185.67C399.487 186.33 400.116 187.103 400.59 187.99C401.064 188.876 401.301 189.907 401.301 191.082C401.301 192.278 401.074 193.402 400.621 194.454C400.188 195.484 399.518 196.381 398.61 197.144C397.724 197.907 396.6 198.515 395.239 198.969C393.899 199.402 392.322 199.619 390.507 199.619C389.682 199.619 388.837 199.546 387.971 199.402C387.105 199.278 386.229 199.031 385.342 198.66C384.456 198.289 383.569 197.763 382.682 197.082C381.796 196.381 380.93 195.474 380.084 194.361L382.373 192.289C383.053 193.258 383.703 194.082 384.321 194.763C384.961 195.443 385.6 196 386.239 196.433C386.899 196.866 387.569 197.186 388.249 197.392C388.95 197.577 389.703 197.67 390.507 197.67ZM419.487 199.619C417.569 199.619 415.776 199.268 414.105 198.567C412.435 197.845 410.971 196.866 409.714 195.629C408.456 194.392 407.466 192.948 406.745 191.299C406.023 189.629 405.662 187.845 405.662 185.948C405.662 183.68 405.992 181.587 406.652 179.67C407.312 177.732 408.25 176.062 409.466 174.659C410.683 173.257 412.136 172.165 413.827 171.381C415.538 170.577 417.446 170.175 419.549 170.175C421.405 170.175 423.095 170.505 424.621 171.165C426.167 171.804 427.487 172.68 428.58 173.793C429.693 174.886 430.559 176.154 431.178 177.598C431.796 179.02 432.106 180.515 432.106 182.082H411.044C411.044 183.979 411.281 185.742 411.755 187.371C412.25 188.979 412.94 190.371 413.827 191.546C414.714 192.722 415.765 193.649 416.982 194.33C418.198 194.99 419.539 195.32 421.002 195.32C422.219 195.32 423.384 195.124 424.497 194.732C425.631 194.34 426.652 193.825 427.559 193.185C428.487 192.526 429.271 191.783 429.91 190.959C430.549 190.134 431.003 189.278 431.271 188.392L432.848 189.103C432.436 190.546 431.786 191.907 430.9 193.185C430.013 194.464 428.961 195.577 427.745 196.526C426.549 197.474 425.24 198.227 423.817 198.784C422.394 199.34 420.951 199.619 419.487 199.619ZM425.085 179.824C425.085 178.752 424.889 177.763 424.497 176.855C424.126 175.927 423.611 175.123 422.951 174.443C422.291 173.762 421.518 173.237 420.631 172.866C419.745 172.474 418.796 172.278 417.786 172.278C416.941 172.278 416.126 172.474 415.343 172.866C414.58 173.237 413.899 173.762 413.301 174.443C412.703 175.123 412.198 175.927 411.786 176.855C411.394 177.763 411.157 178.752 411.074 179.824H425.085Z" fill="#0061B2"/>
</svg>
